PathFileType	4	(X/Y/Z)	TVC_12_BWA1_walk_RCNL2025.trc
DataRate	CameraRate	NumFrames	NumMarkers	Units	OrigDataRate	OrigDataStartFrame	OrigNumFrames
100	100	6	27	mm	100	410	468
Frame#	Time	R_Shoulder			L_Shoulder			C7			J_Notch			R_Elbow			L_Elbow			R_Wrist			L_Wrist			R_Asis			L_Asis			R_Psis			L_Psis			Sacral			Thoracic			Sternum			R_Thigh_Lateral			R_Knee_Lateral			R_Shank_Lateral			R_Ankle_Lateral			R_Heel			R_Toe			L_Thigh_Lateral			L_Knee_Lateral			L_Shank_Lateral			L_Ankle_Lateral			L_Heel			L_Toe		
		X1	Y1	Z1	X2	Y2	Z2	X3	Y3	Z3	X4	Y4	Z4	X5	Y5	Z5	X6	Y6	Z6	X7	Y7	Z7	X8	Y8	Z8	X9	Y9	Z9	X10	Y10	Z10	X11	Y11	Z11	X12	Y12	Z12	X13	Y13	Z13	X14	Y14	Z14	X15	Y15	Z15	X16	Y16	Z16	X17	Y17	Z17	X18	Y18	Z18	X19	Y19	Z19	X20	Y20	Z20	X21	Y21	Z21	X22	Y22	Z22	X23	Y23	Z23	X24	Y24	Z24	X25	Y25	Z25	X26	Y26	Z26	X27	Y27	Z27
410	4.09000000	673.368774	1378.581299	298.659241	654.628723	1352.065674	-118.691277	556.288513	1432.404297	90.857124	712.238037	1321.903198	93.560722	553.206909	1065.958130	384.734344	496.795959	1043.187012	-155.824585	610.209473	821.252319	358.383102	520.109879	808.130524	-105.050789	633.947083	940.810974	295.957428	623.361816	925.737732	-51.202312	451.864563	974.839844	189.860962	443.573517	976.744507	81.768105	447.719040	975.792175	135.814533	466.344818	1188.296631	109.057594	791.306763	1126.281494	92.829353	682.010620	637.273560	343.943542	664.040039	497.537415	317.678833	503.168640	353.054230	363.768585	372.710297	183.881012	308.789520	346.561310	206.877319	246.064789	452.305939	73.613197	301.155182	586.161194	601.338379	-81.689468	632.722595	479.756561	-14.274494	593.422668	287.674561	-52.284012	576.217957	75.688766	22.592520	531.927734	57.989391	77.586388	718.706665	45.730450	35.197098
411	4.10000000	678.249268	1378.489258	297.897766	660.088562	1352.148682	-119.450516	561.504639	1432.408936	89.916359	717.218994	1321.715942	92.881096	557.647583	1066.012451	383.961029	502.098633	1043.517334	-157.481247	615.101868	821.432037	357.373108	525.229507	808.163483	-107.142879	637.854614	940.690857	295.296570	626.702271	925.298096	-52.748291	455.983246	975.181458	188.959427	447.577820	977.292969	80.997627	451.780533	976.237213	134.978527	470.967773	1188.731323	108.054352	795.691040	1125.795776	92.206360	689.393616	638.860413	343.293304	675.379456	499.075378	316.745331	515.422546	354.058167	362.085693	385.659882	184.576752	306.761047	358.745728	207.584885	244.238846	466.549408	75.400536	297.940125	589.202393	601.309448	-82.276360	634.158203	479.642029	-14.406536	594.132385	287.538788	-52.228462	576.278687	75.744202	22.582636	531.727905	58.048840	77.282730	718.677734	45.683514	35.281315
412	4.11000000	683.099792	1378.341309	297.244324	665.538879	1352.222656	-120.128456	566.738892	1432.397583	89.075050	722.200378	1321.502075	92.291077	561.967529	1066.024780	383.241821	507.363983	1043.849854	-159.052856	619.770264	821.547699	356.441971	530.301224	808.205658	-109.079334	641.733032	940.523193	294.650513	630.045471	924.948059	-54.216801	460.056824	975.519104	188.163712	451.605072	977.834778	80.290100	455.830948	976.676941	134.226906	475.601288	1189.136719	107.121948	800.088501	1125.300659	91.625175	696.162170	640.333008	342.881653	686.528809	500.702698	315.801727	527.805908	354.816895	360.400116	399.130981	184.691574	304.683502	371.422882	207.613007	242.362930	481.637268	76.910156	294.769867	591.771179	601.238098	-82.657265	635.421082	479.539215	-14.526910	594.735413	287.425415	-52.145374	576.340820	75.839081	22.537483	531.528564	58.132957	76.973274	718.612976	45.604317	35.387989
413	4.12000000	687.930420	1378.130371	296.697601	670.986694	1352.285645	-120.721451	571.990051	1432.384155	88.335411	727.185852	1321.263916	91.787018	566.176758	1065.987183	382.570465	512.595459	1044.185791	-160.540939	624.221039	821.594086	355.595428	535.363770	808.280334	-110.882240	645.591187	940.328735	294.015564	633.449829	924.712952	-55.565727	464.095612	975.853088	187.456848	455.659973	978.356750	79.638069	459.877792	977.104919	133.547459	480.251312	1189.500854	106.260887	804.506897	1124.800171	91.085571	702.434082	641.699463	342.672089	697.478149	502.421539	314.867920	540.309814	355.310242	358.726349	413.115997	184.211090	302.550385	384.654541	206.954361	240.439240	497.496552	78.090881	291.689880	593.863708	601.176270	-82.872002	636.496094	479.420471	-14.654088	595.268494	287.350342	-52.058956	576.410400	75.978653	22.449018	531.362061	58.276466	76.692719	718.511902	45.488636	35.515339
414	4.13000000	692.752441	1377.852783	296.254272	676.438538	1352.338135	-121.225380	577.255737	1432.372437	87.700401	732.177307	1321.002808	91.365913	570.287964	1065.894531	381.942535	517.792603	1044.525269	-161.943344	628.463715	821.566803	354.841873	540.437164	808.400909	-112.562214	649.438904	940.126892	293.390625	636.958618	924.597595	-56.761772	468.106384	976.185364	186.823013	459.731781	978.848267	79.041466	463.919083	977.516815	132.932240	484.914917	1189.818359	105.475258	808.950623	1124.296631	90.589157	708.342468	642.979126	342.623901	708.218689	504.227936	313.967407	552.923645	355.516449	357.085052	427.605438	183.134949	300.363647	398.492401	205.609390	238.480515	514.060669	78.908142	288.737671	595.494385	601.156250	-82.944237	637.418457	479.262115	-14.794143	595.769958	287.325867	-51.984882	576.491150	76.157883	22.322430	531.234802	58.501450	76.440544	718.381836	45.340916	35.656502
415	4.14000000	697.574890	1377.507324	295.911194	681.899719	1352.381836	-121.637077	582.532959	1432.358765	87.174881	737.174316	1320.719482	91.026802	574.315674	1065.745605	381.355560	522.950500	1044.866943	-163.253220	632.509705	821.464325	354.189514	545.525574	808.572693	-114.121098	653.285583	939.932129	292.776520	640.599854	924.589722	-57.785152	472.095154	976.508911	186.246826	463.808990	979.304321	78.495300	467.952072	977.906616	132.371063	489.583649	1190.092407	104.767746	813.421143	1123.790771	90.139999	714.022949	644.197632	342.696106	718.741150	506.112610	313.122314	565.634399	355.421600	355.498779	442.590057	181.479431	298.133881	412.967468	203.589569	236.502457	531.274597	79.346367	285.940979	596.699707	601.185486	-82.880997	638.276611	479.058624	-14.937482	596.267944	287.356293	-51.927448	576.580505	76.357101	22.179890	531.140930	58.815479	76.208839	718.238892	45.178028	35.797474
